<svg width="18.000000" height="18.000000" viewBox="0 0 18 18" fill="none" xmlns="http://www.w3.org/2000/svg" xmlns:xlink="http://www.w3.org/1999/xlink">
	<desc>
			Created with Pixso.
	</desc>
	<defs/>
	<path id="ZLpfCSfm" d="M14.6567 3.34326C14.9497 3.63623 14.9497 4.11084 14.6567 4.40381L4.40381 14.6567C4.11084 14.9497 3.63623 14.9497 3.34326 14.6567C3.05029 14.3643 3.05029 13.8892 3.34326 13.5962L7.93994 8.99951L3.34326 4.40381C3.05029 4.11084 3.05029 3.63623 3.34326 3.34326C3.63623 3.05029 4.11084 3.05029 4.40381 3.34326L9.00098 7.93848L13.5962 3.34326C13.8892 3.05029 14.3643 3.05029 14.6567 3.34326ZM14.6567 14.6572C14.9497 14.3643 14.9497 13.8892 14.6567 13.5962L10.7676 9.70752L9.70703 10.7681L13.5962 14.6572C13.8892 14.9502 14.3638 14.9502 14.6567 14.6572Z" clip-rule="evenodd" fill="#000000" fill-opacity="0.901961" fill-rule="evenodd"/>
</svg>
