<svg viewBox="0 0 16 16" xmlns="http://www.w3.org/2000/svg" xmlns:xlink="http://www.w3.org/1999/xlink" width="16.000000" height="16.000000" fill="none">
	<rect id="0.cfDJNXxsmcUn/JzXIMkcf/lKKX" width="16.000000" height="16.000000" x="0.000000" y="0.000000" />
	<g id="ic_close_filled">
		<g id="cUqjoVxY">
			<rect id="QQyjoAIb" width="16.000000" height="16.000000" x="0.000000" y="0.000000" opacity="0" fill="rgb(216,216,216)" />
			<rect id="mawPUhkH" width="16.000000" height="16.000000" x="0.000000" y="0.000000" opacity="0" stroke="rgb(0,0,0)" stroke-opacity="0" stroke-width="0.666666687" />
			<path id="IUnvXphiWfOgOlXY" d="M3.80467 2.86249L7.99984 7.05766L12.1953 2.86249C12.456 2.60183 12.8773 2.60183 13.138 2.86249C13.3987 3.12316 13.3987 3.54449 13.138 3.80516L8.9425 8.00033L13.138 12.1958C13.3987 12.4565 13.3987 12.8778 13.138 13.1385C13.008 13.2685 12.8373 13.3338 12.6667 13.3338C12.496 13.3338 12.3253 13.2685 12.1953 13.1385L7.99984 8.94299L3.80467 13.1385C3.67467 13.2685 3.504 13.3338 3.33334 13.3338C3.16267 13.3338 2.992 13.2685 2.862 13.1385C2.60134 12.8778 2.60134 12.4565 2.862 12.1958L7.05717 8.00033L2.862 3.80516C2.60134 3.54449 2.60134 3.12316 2.862 2.86249C3.12267 2.60183 3.544 2.60183 3.80467 2.86249Z" fill="rgb(119,119,119)" fill-rule="evenodd" />
			<path id="LbNUXfAjATEnLEit" d="M7.99984 7.05766L12.1953 2.86249C12.456 2.60183 12.8773 2.60183 13.138 2.86249C13.3987 3.12316 13.3987 3.54449 13.138 3.80516L8.9425 8.00033L13.138 12.1958C13.3987 12.4565 13.3987 12.8778 13.138 13.1385C13.008 13.2685 12.8373 13.3338 12.6667 13.3338C12.496 13.3338 12.3253 13.2685 12.1953 13.1385L7.99984 8.94299L3.80467 13.1385C3.67467 13.2685 3.504 13.3338 3.33334 13.3338C3.16267 13.3338 2.992 13.2685 2.862 13.1385C2.60134 12.8778 2.60134 12.4565 2.862 12.1958L7.05717 8.00033L2.862 3.80516C2.60134 3.54449 2.60134 3.12316 2.862 2.86249C3.12267 2.60183 3.544 2.60183 3.80467 2.86249L7.99984 7.05766Z" fill-rule="evenodd" stroke="rgb(0,0,0)" stroke-opacity="0" stroke-width="0.666666687" />
		</g>
	</g>
</svg>
