<svg viewBox="0 0 14 14" xmlns="http://www.w3.org/2000/svg" xmlns:xlink="http://www.w3.org/1999/xlink" width="14.000000" height="14.000000" fill="none" customFrame="#000000">
	<rect id="icon-iGcetkHArGQCMcfw" width="14.000000" height="14.000000" x="0.000000" y="0.000000" />
	<path id="BG" d="M14 0L14 14L0 14L0 0L14 0L14 0Z" opacity="0" fill="rgb(216,216,216)" fill-rule="evenodd" />
	<path id="hHnzraCa 137" d="M1.45872 2.21666C1.45872 1.95892 1.66764 1.75 1.92527 1.75L12.016 1.75C12.2737 1.75 12.4827 1.95892 12.4827 2.21666C12.4827 2.4744 12.2737 2.68332 12.016 2.68332L1.92527 2.68332C1.66764 2.68332 1.45872 2.4744 1.45872 2.21666ZM1.2832 7.02916C1.2832 6.77142 1.49213 6.5625 1.7499 6.5625L7.11597 6.5625C7.37374 6.5625 7.58266 6.77142 7.58266 7.02916C7.58266 7.2869 7.37374 7.49582 7.11597 7.49582L1.7499 7.49582C1.49213 7.49582 1.2832 7.2869 1.2832 7.02916ZM1.45872 11.8417C1.45872 11.5839 1.66764 11.375 1.92527 11.375L12.016 11.375C12.2737 11.375 12.4827 11.5839 12.4827 11.8417C12.4827 12.0994 12.2737 12.3083 12.016 12.3083L1.92527 12.3083C1.66764 12.3083 1.45872 12.0994 1.45872 11.8417Z" fill="rgb(25,25,25)" fill-rule="evenodd" />
	<path id="VVgVryZP 138" d="M10.2835 4.42983L12.4013 6.78321C12.5091 6.90294 12.5091 7.09709 12.4013 7.21682L10.2835 9.5702C10.1097 9.76335 9.8125 9.62656 9.8125 9.35341L9.8125 4.64665C9.8125 4.3735 10.1097 4.23668 10.2835 4.42983Z" fill="rgb(25,25,25)" fill-rule="evenodd" />
</svg>
