<svg xmlns="http://www.w3.org/2000/svg" width="16" height="16" viewBox="0 0 16 16">
  <g id="组_18" data-name="组 18" transform="translate(-1418 840)">
    <rect id="矩形_41" data-name="矩形 41" width="16" height="16" transform="translate(1418 -840)" fill="none"/>
    <path id="导航-菜单" d="M14,1.684a.684.684,0,0,1-.684.684H.684A.684.684,0,0,1,.684,1H13.316A.684.684,0,0,1,14,1.684ZM14,7a.684.684,0,0,1-.684.684H.684a.684.684,0,0,1,0-1.367H13.316A.684.684,0,0,1,14,7Zm0,5.316a.684.684,0,0,1-.684.684H.684a.684.684,0,0,1,0-1.367H13.316A.684.684,0,0,1,14,12.316Z" transform="translate(1419 -839)" fill="#333"/>
  </g>
</svg>
