<svg width="40.000000" height="39.876221" viewBox="0 0 40 39.8762" fill="none" xmlns="http://www.w3.org/2000/svg" xmlns:xlink="http://www.w3.org/1999/xlink">
	<desc>
			Created with Pixso.
	</desc>
	<defs/>
	<rect id=".close btn" rx="19.938080" width="40.000000" height="39.876160" fill="#000000" fill-opacity="0.050980"/>
	<path id="形状" d="M25.6572 14.2974C25.9502 14.5894 25.9502 15.0627 25.6572 15.3547L15.4043 25.5759C15.1113 25.8679 14.6367 25.8679 14.3438 25.5759C14.0508 25.2839 14.0508 24.8105 14.3438 24.5186L18.9404 19.936L14.3438 15.3547C14.0508 15.0627 14.0508 14.5894 14.3438 14.2974C14.6367 14.0054 15.1113 14.0054 15.4043 14.2974L20.001 18.8787L24.5967 14.2974C24.8896 14.0054 25.3643 14.0054 25.6572 14.2974ZM25.6562 25.5757C25.9492 25.2837 25.9492 24.8103 25.6562 24.5183L21.7676 20.6414L20.707 21.6987L24.5957 25.5757C24.8887 25.8677 25.3633 25.8677 25.6562 25.5757Z" clip-rule="evenodd" fill="#000000" fill-opacity="0.901961" fill-rule="evenodd"/>
</svg>
