<svg xmlns="http://www.w3.org/2000/svg" width="14" height="14" viewBox="0 0 14 14">
  <g id="语言" transform="translate(0)">
    <rect id="矩形_659" data-name="矩形 659" width="14" height="14" fill="none"/>
    <path id="路径_240" data-name="路径 240" d="M4.915,7.525A10.988,10.988,0,0,0,6.86,12.949a6.064,6.064,0,0,0,.643-.02,10.982,10.982,0,0,0,1.932-5.4H4.915Zm0-1.05H9.435A10.982,10.982,0,0,0,7.5,1.071a6.029,6.029,0,0,0-.643-.02A10.989,10.989,0,0,0,4.915,6.475Zm8.011,1.05H10.488A9.7,9.7,0,0,1,8.811,12.67a5.955,5.955,0,0,0,4.116-5.145Zm0-1.05A5.955,5.955,0,0,0,8.811,1.33a9.7,9.7,0,0,1,1.677,5.145h2.439ZM1.073,7.525a5.954,5.954,0,0,0,4.55,5.265A9.691,9.691,0,0,1,3.862,7.525H1.073Zm0-1.05H3.862A9.691,9.691,0,0,1,5.622,1.21a5.954,5.954,0,0,0-4.55,5.265ZM7,0A7,7,0,1,1,0,7,7,7,0,0,1,7,0Z" fill="#ccc"/>
  </g>
</svg>
