<svg xmlns="http://www.w3.org/2000/svg" width="14" height="14" viewBox="0 0 14 14">
  <g id="消息" transform="translate(-95.8 -125.994)">
    <rect id="矩形_121" data-name="矩形 121" width="14" height="14" transform="translate(95.8 125.994)" fill="none"/>
    <path id="联合_1" data-name="联合 1" d="M7.625,11.528,3.814,9.291h-1.9A1.827,1.827,0,0,1,0,7.549V4.057A1.829,1.829,0,0,1,1.913,2.316h1.9L7.624.079c.529-.21.957.014.957.5v10.45a.539.539,0,0,1-.572.58A1.048,1.048,0,0,1,7.625,11.528Zm3.636-1.074a.409.409,0,0,1,.039-.615,2.573,2.573,0,0,0,.255-.245,5.574,5.574,0,0,0,.605-.778,5.552,5.552,0,0,0,0-6.02,5.364,5.364,0,0,0-.605-.778A2.869,2.869,0,0,0,11.3,1.77a.409.409,0,0,1-.039-.615.507.507,0,0,1,.673-.035A5.4,5.4,0,0,1,12.98,2.351a6.356,6.356,0,0,1,0,6.906,5.441,5.441,0,0,1-1.047,1.232.5.5,0,0,1-.317.111A.492.492,0,0,1,11.261,10.453ZM9.385,8.736a.409.409,0,0,1-.024-.617,2.548,2.548,0,0,0,.4-.57A3.655,3.655,0,0,0,10.186,5.8a3.655,3.655,0,0,0-.428-1.747,2.513,2.513,0,0,0-.4-.57.412.412,0,0,1,.024-.617.508.508,0,0,1,.673.022,3.406,3.406,0,0,1,.558.778A4.459,4.459,0,0,1,11.141,5.8a4.459,4.459,0,0,1-.526,2.132,3.324,3.324,0,0,1-.556.782.507.507,0,0,1-.674.022Z" transform="translate(95.8 126.994)" fill="#ccc"/>
  </g>
</svg>
