<svg width="32.000000" height="32.000000" viewBox="0 0 32 32" fill="none" xmlns="http://www.w3.org/2000/svg" xmlns:xlink="http://www.w3.org/1999/xlink">
	<desc>
			Created with Pixso.
	</desc>
	<defs/>
	<g opacity="0.400000">
		<rect id="矩形" rx="16.000000" width="32.000000" height="32.000000" transform="matrix(-1 0 0 1 32 0)" fill="#1672F6" fill-opacity="1.000000"/>
		<rect id="矩形" rx="15.500000" width="31.000000" height="31.000000" transform="matrix(-1 0 0 1 32 0)" stroke="#000000" stroke-opacity="0" stroke-width="1.000000"/>
	</g>
	<path id="路径 4" d="M6 15.15L9.51 16.61L9.26 17.23L9.26 17.25C9.62 17.4 10.02 17.24 10.16 16.88C10.25 16.69 10.23 16.48 10.14 16.3L23.25 9.59L23.25 9.6L12.13 18.16L21.97 22.35L23.85 9.95C23.95 9.79 23.98 9.59 23.93 9.41L24.07 8.49L6 15.15Z" fill="#D8D8D8" fill-opacity="0" fill-rule="evenodd"/>
	<path id="路径 4" d="M9.53 16.62L6 15.15L24.07 8.49L21.97 22.35L12.13 18.16L23.26 9.58" stroke="#FFFFFF" stroke-opacity="1.000000" stroke-width="1.375000" stroke-linejoin="round"/>
	<path id="路径 6" d="M11.23 18.38L11.25 18.4L11.94 18.4L11.94 23.95L16.24 20.52L16.66 21.05L16.69 21.06C17 20.81 17.05 20.38 16.8 20.07C16.56 19.76 16.12 19.71 15.82 19.96L15.81 19.98L16.21 20.49L11.98 18.4L12.62 18.4L12.64 18.38C12.64 17.99 12.33 17.68 11.94 17.68C11.54 17.68 11.23 17.99 11.23 18.38Z" fill="#D8D8D8" fill-opacity="0" fill-rule="evenodd"/>
	<path id="路径 6" d="M16.25 20.51L11.94 23.95L11.94 18.38" stroke="#FFFFFF" stroke-opacity="1.000000" stroke-width="1.406250" stroke-linejoin="round"/>
</svg>
